<svg xmlns="http://www.w3.org/2000/svg" 
    xmlns:xlink="http://www.w3.org/1999/xlink" version="1.1" id="Ebene_1" x="0px" y="0px" viewBox="0 0 77.7 18.4" xml:space="preserve">
    <g>
        <g fill="currentcolor">
            <path  d="M8.6,2.3l-2.7,8.4c0,0-0.4,1.2-1.5,1.2H0l0.5-1.5l2.7-8.3c0,0,0.6-1.7,1.9-1.7h4.9C9.2,0.3,8.6,2.3,8.6,2.3"/>
            <path  d="M15.8,2.3l-2.7,8.4c0,0-0.4,1.2-1.5,1.2H7.2l0.5-1.5l2.7-8.3c0,0,0.6-1.7,1.9-1.7h4.9    C16.4,0.3,15.8,2.3,15.8,2.3"/>
            <path  d="M74,7.8h-4.7l2.4-5.7h0L74,7.8z M66,11.9h1.6l1.2-2.9h5.8l1.2,2.9h1.6L72.4,0.3h-1.3L66,11.9z M59.6,11.9h6.7    l0.6-1.3h-5.9V0.3h-1.4V11.9z M51.7,10.9c-2.7,0-4.6-2.1-4.6-4.8s1.9-4.8,4.6-4.8c2.7,0,4.6,2.1,4.6,4.8S54.4,10.9,51.7,10.9     M51.7,12.2c3.5,0,6.1-2.6,6.1-6.1c0-3.5-2.5-6.1-6.1-6.1c-3.5,0-6.1,2.6-6.1,6.1C45.6,9.6,48.2,12.2,51.7,12.2 M35.7,1.6h2.6    C41,1.6,43,2.9,43,6.1c0,3.2-2,4.5-4.7,4.5h-2.6V1.6z M34.3,11.9h4.5c2.3,0,5.7-1.5,5.7-5.8c0-4.3-3.4-5.8-5.7-5.8h-4.5V11.9z     M22.2,11.9h1.4V2.3h0l6.7,9.6h1.7V0.3h-1.4v9.6h0l-6.7-9.6h-1.7V11.9z M18.3,11.9h1.4V0.3h-1.4V11.9z"/>
            <path  d="M76.1,14.9h-0.4v3.5h2V18h-1.6V14.9z M73.1,15.3l0.7,1.8h-1.5L73.1,15.3z M72.2,17.5H74l0.4,0.9h0.4l-1.5-3.5    H73l-1.5,3.5h0.4L72.2,17.5z M68.1,14.9h-0.4v3.5H68v-3h0l2.1,3h0.4v-3.5h-0.4v2.9h0L68.1,14.9z M66.1,16.6c0,0.8-0.5,1.5-1.4,1.5    c-0.9,0-1.4-0.7-1.4-1.5c0-0.8,0.5-1.5,1.4-1.5C65.5,15.1,66.1,15.8,66.1,16.6 M66.4,16.6c0-1.1-0.8-1.8-1.8-1.8s-1.8,0.8-1.8,1.8    c0,1,0.8,1.8,1.8,1.8S66.4,17.7,66.4,16.6 M61.7,14.9h-0.4v3.5h0.4V14.9z M60,15.2c-0.3-0.3-0.6-0.4-1-0.4c-0.6,0-1.1,0.3-1.1,1    c0,1.3,1.8,0.7,1.8,1.7c0,0.4-0.4,0.6-0.7,0.6c-0.4,0-0.6-0.2-0.8-0.4l-0.3,0.2c0.3,0.4,0.7,0.5,1.1,0.5c0.5,0,1.1-0.4,1.1-1    c0-1.2-1.8-0.8-1.8-1.7c0-0.4,0.4-0.6,0.7-0.6c0.3,0,0.5,0.1,0.7,0.3L60,15.2z M56.8,15.2c-0.3-0.3-0.6-0.4-1-0.4    c-0.6,0-1.1,0.3-1.1,1c0,1.3,1.8,0.7,1.8,1.7c0,0.4-0.4,0.6-0.7,0.6c-0.4,0-0.6-0.2-0.8-0.4l-0.3,0.2c0.3,0.4,0.7,0.5,1.1,0.5    c0.5,0,1.1-0.4,1.1-1c0-1.2-1.8-0.8-1.8-1.7c0-0.4,0.4-0.6,0.7-0.6c0.3,0,0.5,0.1,0.7,0.3L56.8,15.2z M51.9,16.7h1.7v-0.3h-1.7    v-1.2h1.8v-0.3h-2.1v3.5h2.2V18h-1.8V16.7z M48.7,16.7h1.6v-0.3h-1.6v-1.2h1.7v-0.3h-2.1v3.5h0.4V16.7z M46.8,16.6    c0,0.8-0.5,1.5-1.4,1.5c-0.9,0-1.4-0.7-1.4-1.5c0-0.8,0.5-1.5,1.4-1.5C46.2,15.1,46.8,15.8,46.8,16.6 M47.1,16.6    c0-1.1-0.8-1.8-1.8-1.8c-1,0-1.8,0.8-1.8,1.8c0,1,0.8,1.8,1.8,1.8C46.4,18.4,47.1,17.7,47.1,16.6 M40.7,15.2h0.6    c0.6,0,0.8,0.3,0.8,0.6c0,0.3-0.2,0.6-0.8,0.6h-0.6V15.2z M40.7,16.8h0.6l0.9,1.6h0.4l-1-1.6c0.6,0,0.9-0.4,0.9-0.9    c0-0.6-0.4-0.9-1.1-0.9h-1.1v3.5h0.4V16.8z M37.4,15.2H38c0.6,0,0.8,0.3,0.8,0.6c0,0.3-0.2,0.6-0.8,0.6h-0.6V15.2z M37.1,18.4h0.3    v-1.6h0.7c0.7,0,1.1-0.3,1.1-0.9c0-0.6-0.4-0.9-1.1-0.9h-1V18.4z M33.1,16.9l1.3-2h-0.4l-1,1.6l-1-1.6h-0.4l1.3,2v1.5h0.4V16.9z     M29.9,14.9h-0.4v3.5h2V18h-1.6V14.9z M26.5,16.7h1.7v-0.3h-1.7v-1.2h1.8v-0.3h-2.1v3.5h2.2V18h-1.8V16.7z M22.6,14.9h-0.4    l1.3,3.5h0.4l1.3-3.5h-0.4l-1.1,2.9h0L22.6,14.9z M21.2,14.9h-0.4v3.5h0.4V14.9z M19.6,15.2c-0.3-0.3-0.6-0.4-1-0.4    c-0.6,0-1.1,0.3-1.1,1c0,1.3,1.8,0.7,1.8,1.7c0,0.4-0.4,0.6-0.7,0.6c-0.4,0-0.6-0.2-0.8-0.4l-0.3,0.2c0.3,0.4,0.7,0.5,1.1,0.5    c0.5,0,1.1-0.4,1.1-1c0-1.2-1.8-0.8-1.8-1.7c0-0.4,0.4-0.6,0.7-0.6c0.3,0,0.5,0.1,0.7,0.3L19.6,15.2z M16.3,14.9H16V17    c0,1-0.6,1.1-0.9,1.1c-0.3,0-0.9-0.1-0.9-1.1v-2.1h-0.4v2.2c0,0.6,0.2,1.4,1.3,1.4c1,0,1.3-0.8,1.3-1.4V14.9z M11.3,14.9h-0.3v3.5    h2V18h-1.6V14.9z M9.6,17.6c-0.3,0.4-0.6,0.5-1,0.5c-0.9,0-1.4-0.7-1.4-1.5c0-0.8,0.5-1.5,1.4-1.5c0.4,0,0.8,0.2,0.9,0.5l0.3-0.2    C9.5,15,9,14.8,8.6,14.8c-1,0-1.8,0.8-1.8,1.8c0,1,0.8,1.8,1.8,1.8c0.6,0,1-0.3,1.3-0.6L9.6,17.6z M3.6,14.9H3.1l1.2,1.6L3,18.4    h0.4l1.1-1.6l1.1,1.6H6l-1.3-1.8l1.2-1.6H5.5l-1,1.4L3.6,14.9z M0.4,16.7h1.7v-0.3H0.4v-1.2h1.8v-0.3H0.1v3.5h2.2V18H0.4V16.7z"/>
        </g>
    </g>
</svg>