<svg xmlns="http://www.w3.org/2000/svg" 
    xmlns:xlink="http://www.w3.org/1999/xlink" 
    version="1.1" id="Ebene_2" x="0px" y="0px" 
    viewBox="0 0 283.5 142.3" 
    style="enable-background:new 0 0 283.5 142.3;" 
    xml:space="preserve" 
    g_init="2270459201811081853">
    <g>
        <path fill="currentcolor" d="M162.1,29.2c0.1-2.4-0.1-4.9,0.8-7c0.6-2.3,0.2-4.9-0.5-7.1c-0.2-2.9-1.1-5.4-3-7.6c-1.7-2.4-4.6-2.8-6.8-4.5   c-2-1.8-4.8-2-7.5-1.9c-1.7,0-3.3-0.4-4.9-0.7c-2.5-0.6-5.1,0-7.3,0.8c-1.8,0.3-3.6,0.4-5.2,1.2c-2,1.1-4.4,1.7-5.8,3.8   c-1.1,1.3-2.5,2.4-2.8,4.1c-0.3,2.1,0.1,4.2,1.9,5.6c0.5,0.6,1.5,0.6,1.7,1.4c-0.2,1.5-1,2.8-1.4,4.1c-0.9,1.6,1.4,2.4,0.6,4.1   l-3.3,5.8c-0.4,0.8-0.9,1.6-0.9,2.6c0.4,1.6,2.3,1,3.3,2c0.7,0.9-0.4,1.6-0.4,2.4c-0.2,0.7,0.9,1,0.4,1.7c-0.6,1,0.5,1.8,0.8,2.7   c0.1,1.3-0.7,2.7,0.3,3.8c2.5,1.8,6.4,0.4,9,1.7c1.4,1,1.1,2.8,1.1,4.3c-0.7,6.3-3.8,11.7-7.7,16.7c-0.4,0.6-0.8,1.4-0.5,2.1   c0.6,0.3,1.4,0.2,2,0c7.2-2.5,12.8-8.7,19.8-11.6c2.7-1.3,5.8-1.8,8.7-2.4c0.7-0.6,0.3-1.6,0.1-2.3c-1.4-3.8-3.1-7.7-2.8-12.1   c0-1.6,1.8-2,2.9-2.6c1.9-0.5,3.1-2.4,3.9-4C160,33.8,161.8,31.8,162.1,29.2L162.1,29.2z M45.2,103.3c-2.7,0.5-3.3,0.5-4.9,0.5   c-3.3,0-5.1-0.8-6.8-3c-1.5-1.9-2.4-4.6-2.4-7.7c0-6.3,3.6-10.9,8.5-10.9l1.1,0l2.2,4.8h3.1v-5.6c-2.4-0.8-4.3-1.2-6.2-1.2   c-8.1,0-13.5,5.6-13.5,14c0,7.4,4.3,12.6,10.5,12.6c1.9,0,3.9-0.4,6.2-1.1l2.5-0.8l0.5-0.2l-0.3-1.7L45.2,103.3L45.2,103.3z    M72.2,88.5c0-5.2-2.7-8.5-6.9-8.5c-1.7,0-4.1,0.8-7.8,2.6l-0.7,0.3V65.1l-8.9,2.2v1.2l4.1,1.4v33.4l-3.8,1.9v1.4h12.5v-1.4   l-3.8-1.9v-19c1.1-0.3,3.1-0.7,4.6-0.7c4.3,0,6,1.8,6,6.2v13.5l-3.8,1.9v1.4h12.7v-1.4l-4-1.9V88.5L72.2,88.5z M103.7,82l3.7,1.8   l-5.3,16.2v-0.2c-0.4-1.6-0.5-1.7-0.9-2.7l-5-16.3h-1.9l-6.7,19.6l-0.2-0.8L87,97.9l-0.4-1.5l-4.2-13.1L86,82v-1.4H74.3V82l2.9,1.5   l8.1,23.5h2.4L94,88.8l5.7,18.2h2.2l8.7-23.3l2.9-1.8v-1.4h-10V82L103.7,82z M132.1,101.1V86.7c0-4.3-2.4-6.4-7.3-6.4   c-2.3,0-5,0.6-8.7,1.9v4.9h3l2.1-4.5c0.6-0.1,0.8-0.1,1.3-0.1c3.8,0,5,1.1,5,4.4v5.8c-3.5,0.3-6.4,0.8-8.4,1.3   c-3.4,0.8-5.3,2.9-5.3,6.2c0,3.8,2.8,6.6,6.9,6.6c0.9,0,1.8-0.1,2.4-0.4l2.3-1l1.7-0.9l0.6-0.3c0.3,1.8,1.2,2.6,2.7,2.6h0.2   c0.7-0.1,1.6-0.2,2.1-0.4l3.6-1.3v-1.1l-2.8-0.8C132.2,102.6,132.1,102.4,132.1,101.1L132.1,101.1z M127.6,103.1l-0.4,0.1   c-0.9,0.3-1.4,0.4-1.6,0.4c-0.6,0.2-1.3,0.2-1.9,0.2c-3,0-4.8-1.7-4.8-4.3c0-2.2,1.1-3.5,3.5-4.1c1.8-0.5,3.4-0.8,5.3-1V103.1   L127.6,103.1z M147.1,83.1l-0.3,0.2v-3.4l-8.8,2.3v1.3l3.9,1.3v18.5l-3.9,1.9v1.4h13.9v-1.4l-5.1-1.9V84.7c1.2-0.5,2.5-0.8,3.6-0.8   l1.3,0l1.5,3.2h3.4v-6c-0.8-0.5-1.6-0.8-2.5-0.8C152.7,80.3,150.4,81.3,147.1,83.1L147.1,83.1z M159.6,87.9h1.7l2.5-4.9h8.7   l-14,21.7v1.8h19.9v-8.1h-1.6L174,104l-9.6,0l14.1-21.7v-1.7h-18.8V87.9L159.6,87.9z M195.3,90.9l7-7.3l4.9-1.7v-1.3h-11.6v1.3   l3.3,1.4l-8.9,9.2l10.4,14h7.5v-1.4l-3.6-1.6L195.3,90.9L195.3,90.9z M189.8,65.1l-9.1,2.2v1.2l4.3,1.4v33.4l-4.1,1.9v1.4h13v-1.4   l-4.1-1.9V65.1L189.8,65.1z M278.4,66.6c-6.9,0-11.6,4.1-11.6,10.3v3.7h-4V83h3.9v20.2l-3.9,1.9v1.4h14v-1.4l-5.1-1.9V83h7.3v-2.4   h-7.3v-4.5c0-2.9,0.5-4.8,1.9-5.9c1.1-0.9,2.9-1.6,4.5-1.6l0.7,0.1l1.4,3.3h3.3v-4.6C282.2,66.8,280.4,66.6,278.4,66.6L278.4,66.6z    M221.1,80.1c-7.1,0-12.8,5.7-12.8,14.1c0,7.7,5.4,13.1,12.1,13.1c7.1,0,12.9-5.9,12.9-14.1C233.3,85.4,227.9,80.1,221.1,80.1   L221.1,80.1z M221.1,104.9c-4.4,0-7-4.3-7-11.5c0-6.9,2.4-10.8,6.5-10.8c4.4,0,7,4.4,7,11.9C227.5,101,225.2,104.9,221.1,104.9   L221.1,104.9z M16,86.4l-5.4-3.9c-3.6-2.5-5.3-3.7-5.3-6.3c0-3.8,3.4-5.6,8.5-5.6c0.9,0,1.3,0.1,2.6,0.2l0.4,0.1l2.5,7h1.9v-8.2   l-0.8-0.2l-2.1-0.5c-0.7-0.2-1.5-0.4-2.7-0.5c-1.5-0.2-3-0.3-3.9-0.3C5.8,68,1,72.1,1,78.1c0,1.9,0.4,3.2,1.3,4.7   c0.9,1.7,2.4,2.6,5.1,4.5l5.6,3.7c3.6,2.6,5.1,4.1,5.1,7c0,4-3.4,6.2-8.3,6.2c-1.4,0-2.5-0.1-3.8-0.3l-2.5-7.1H1.6v8.5l0.5,0.2   l2.9,0.8c2.2,0.6,4.6,0.9,6.3,0.9c6.7,0,11.9-4.1,11.9-10.5c0-2.2-0.7-4-1.7-5.6C20.4,89.3,19.3,88.8,16,86.4L16,86.4z M250.8,80.3   c-1.5,0-4.5,1.1-7.4,2.8v-3.3l-8.9,2.2v1.2l4,1.4v32.8l-4,1.7v1.4h14V119l-4.9-1.7v-11c1,0.3,1.5,0.4,2.8,0.4   c8,0,14.6-6.1,14.6-14.5C261,85.5,256.1,80.3,250.8,80.3L250.8,80.3z M246.8,104.3c-1,0-2.2-0.1-3.3-0.2V84.4   c1.2-0.5,3.1-0.8,4.7-0.8c4.8,0,8,4.1,8,10.2C256.3,100.4,252.8,104.3,246.8,104.3L246.8,104.3z"/>
    </g>
</svg>