<svg xmlns="http://www.w3.org/2000/svg" width="263" height="53" viewBox="0 0 263 53" g_init="2270459201811081853">
    <g fill="currentcolor" fill-rule="evenodd">
        <path  d="M165.799 51.462V1.53h45.326v5.77h-35.063v15.127h29.73v5.772h-29.73v17.504h37.06v5.76h-47.323zm55.598 0V1.53h10.264v44.173l31.339-.03-2.467 5.771-39.136.02zM56.567 47.35C61.47 49.855 70.015 53 82.056 53c16.902 0 23.73-8.297 24.699-15.276 1.868-13.39-14.636-15.477-25.678-16.885-5.58-.71-16.464-1.138-16.532-7.838-.05-5.472 7.367-7.069 14.336-7.069 8.706 0 15.205 2.356 18.729 4.024l3.784-5.702C96.632 2.427 88.624.06 78.951 0c-5.99-.04-10.344.928-13.02 2.017-12.938 5.241-13.527 19.88-.987 24.951 4.033 1.628 8.925 2.417 13.597 3.056 10.304 1.419 21.046 2.337 19.089 10.095-1.418 5.601-9.904 6.77-15.574 6.76-12.85 0-21.875-5.043-25.489-7.49v7.959zM0 51.462V1.53h48.62v5.77H10.275v15.127h33.025v5.772H10.274v17.504H48.62v5.76H0zm127.381 0V7.3h-19.787V1.53h49.918v5.77h-19.778v44.163h-10.353z" mask="url(#b)"/>
    </g>
    <style xmlns="" type="text/css" id="undefined"/>
</svg>