<svg xmlns="http://www.w3.org/2000/svg" viewBox="0 0 600 106" id="logo" width="100%" height="100%">
    <path fill="currentcolor" d="M231.109 28.893c-21.234 0-35.705 15.959-35.705 36.921 0 21.639 13.66 36.786 35.705 36.786 15.824 0 27.319-7.033 32.729-23.532h-16.905c-1.218 4.328-7.44 9.061-15.148 9.061-10.684 0-16.634-5.545-17.175-17.717h50.446c1.35-21.503-10.145-41.519-33.947-41.519zm-16.5 29.347c.27-5.41 3.787-14.877 15.959-14.877 9.331 0 13.523 5.139 15.282 14.877h-31.241zM317.69 73.929h18.528c-2.436 18.528-15.284 28.671-33.676 28.671-21.097 0-35.297-14.877-35.297-35.839 0-21.774 12.983-37.868 35.703-37.868 16.499 0 31.648 8.655 32.864 26.507h-18.798c-1.218-7.844-6.22-12.036-14.201-12.036-12.307 0-16.364 12.442-16.364 22.721 0 10.008 3.922 22.045 15.959 22.045 8.925-.001 14.065-5.681 15.282-14.201zm55.908 12.442c2.028 0 3.922-.135 5.95-.541v15.012c-3.246.541-7.438.676-11.225.676-11.767 0-22.044-2.705-22.044-16.635V43.634h-11.632V30.786h11.632V9.824h19.203v20.963h14.066v12.848h-14.066v34.622c0 6.491 1.623 8.114 8.116 8.114zM68.052 55.265v-.271c10.684-4.328 15.282-12.848 15.282-24.208 0-14.606-10.955-26.643-28.267-26.643H3v96.563h21.232V62.974h21.234c10.684 0 14.606 4.463 16.094 14.606 1.083 7.709.813 17.041 3.381 23.126h21.234c-3.787-5.41-3.652-16.77-4.059-22.856-.676-9.737-3.652-19.88-14.064-22.585zm-20.558-7.438H24.232V20.643h23.262c9.469 0 14.606 4.057 14.606 13.389 0 9.737-5.138 13.795-14.606 13.795zm75.72-18.934c-21.232 0-35.703 15.959-35.703 36.921 0 21.639 13.658 36.786 35.703 36.786 15.824 0 27.319-7.033 32.729-23.532h-16.905c-1.218 4.328-7.438 9.061-15.146 9.061-10.684 0-16.637-5.545-17.177-17.717h50.446c1.353-21.503-10.145-41.519-33.947-41.519zM106.715 58.24c.27-5.41 3.787-14.877 15.959-14.877 9.331 0 13.523 5.139 15.281 14.877h-31.24zm91.437-14.606h-13.255v57.072h-19.203V43.634h-11.497V30.786h11.497v-5.41c0-12.307 7.708-21.233 23.397-21.233 3.379 0 6.896.406 10.142.541V19.02a59.667 59.667 0 0 0-7.033-.406c-5.139 0-7.303 2.164-7.303 7.979v4.192h13.255v12.849zm351.65-12.848h19.203v69.92h-19.203v-69.92zM597 4.144v96.563h-19.203V4.144H597zm-47.198 0h19.203v15.823h-19.203V4.144zM414.817 28.893c-21.909 0-36.11 14.606-36.11 36.921 0 22.18 14.201 36.786 36.11 36.786 22.044 0 36.245-14.606 36.245-36.786 0-22.315-14.2-36.921-36.245-36.921zm0 59.236c-12.983 0-16.905-11.225-16.905-22.315 0-11.225 3.922-22.45 16.905-22.45 13.118 0 17.042 11.225 17.042 22.45 0 11.09-3.924 22.315-17.042 22.315zm108.654-24.614h20.556c-2.163 24.073-18.798 39.491-42.465 39.491-29.89 0-47.47-22.315-47.47-50.175 0-28.671 17.58-50.986 47.47-50.986 21.232 0 39.084 12.442 41.655 34.757h-20.558c-1.351-9.602-10.547-16.905-21.097-16.905-19.07 0-26.238 16.229-26.238 33.134 0 16.094 7.168 32.323 26.238 32.323 12.983 0 20.286-8.926 21.909-21.639z"></path>
</svg>